HIERARCHY
ROOT Hips
{
	OFFSET 0.000000 71.427986 0.000000
	CHANNELS 6 Xposition Yposition Zposition Xrotation Yrotation Zrotation
	JOINT Pelvis
	{
		OFFSET 0.000000 0.000000 0.000000
		CHANNELS 3 Xrotation Yrotation Zrotation
		JOINT LeftUpLeg
		{
			OFFSET 6.797100 -2.508499 -1.318700
			CHANNELS 3 Xrotation Yrotation Zrotation
			JOINT LeftLeg
			{
				OFFSET 0.069008 -29.241863 0.690200
				CHANNELS 3 Xrotation Yrotation Zrotation
				JOINT LeftFoot
				{
					OFFSET -0.069008 -29.568123 -0.266800
					CHANNELS 3 Xrotation Yrotation Zrotation
					JOINT LeftToeBase
					{
						OFFSET 3.145500 -8.631000 16.059900
						CHANNELS 3 Xrotation Yrotation Zrotation
						End Site
						{
							OFFSET 0.000000 18.501587 0.000000
						}
					}
				}
			}
			JOINT Left_ShortSleeve
			{
				OFFSET 0.265923 -10.480953 1.153800
				CHANNELS 3 Xrotation Yrotation Zrotation
				End Site
				{
					OFFSET 1.725763 19.823879 0.000000
				}
			}
		}
		JOINT RightUpLeg
		{
			OFFSET -6.797100 -2.508499 -1.318700
			CHANNELS 3 Xrotation Yrotation Zrotation
			JOINT RightLeg
			{
				OFFSET -0.082453 -29.241932 0.688000
				CHANNELS 3 Xrotation Yrotation Zrotation
				JOINT RightFoot
				{
					OFFSET 0.082453 -29.568058 -0.264600
					CHANNELS 3 Xrotation Yrotation Zrotation
					JOINT RightToeBase
					{
						OFFSET -3.115300 -8.682800 16.113400
						CHANNELS 3 Xrotation Yrotation Zrotation
						End Site
						{
							OFFSET 0.000000 18.567114 0.000000
						}
					}
				}
			}
			JOINT Right_ShortSleeve
			{
				OFFSET -0.265923 -10.480953 1.153800
				CHANNELS 3 Xrotation Yrotation Zrotation
				End Site
				{
					OFFSET -1.725766 19.823910 0.000000
				}
			}
		}
	}
	JOINT Spine
	{
		OFFSET 0.000000 13.368103 0.470500
		CHANNELS 3 Xrotation Yrotation Zrotation
		JOINT Spine1
		{
			OFFSET 0.147000 13.837402 0.538800
			CHANNELS 3 Xrotation Yrotation Zrotation
			JOINT Spine2
			{
				OFFSET 0.168000 16.242897 -1.435500
				CHANNELS 3 Xrotation Yrotation Zrotation
				JOINT Neck
				{
					OFFSET 0.217200 18.631500 -1.679100
					CHANNELS 3 Xrotation Yrotation Zrotation
					JOINT Head
					{
						OFFSET 0.000000 6.599396 1.385900
						CHANNELS 3 Xrotation Yrotation Zrotation
						JOINT Hat
						{
							OFFSET -0.532200 27.220596 -10.096100
							CHANNELS 3 Xrotation Yrotation Zrotation
							End Site
							{
								OFFSET 0.000000 22.029861 0.000000
							}
						}
						JOINT HairD
						{
							OFFSET -10.777400 17.437393 -1.325900
							CHANNELS 3 Xrotation Yrotation Zrotation
							JOINT HairD1
							{
								OFFSET -3.290299 -11.051193 1.062200
								CHANNELS 3 Xrotation Yrotation Zrotation
								End Site
								{
									OFFSET 0.000000 11.579437 0.000000
								}
							}
						}
						JOINT HairB
						{
							OFFSET -10.777400 17.437393 1.467900
							CHANNELS 3 Xrotation Yrotation Zrotation
							JOINT HairB1
							{
								OFFSET -1.561200 -12.956299 3.590200
								CHANNELS 3 Xrotation Yrotation Zrotation
								End Site
								{
									OFFSET 0.000000 13.534866 0.000000
								}
							}
						}
						JOINT HairA
						{
							OFFSET 9.713100 17.437393 1.467900
							CHANNELS 3 Xrotation Yrotation Zrotation
							JOINT HairA1
							{
								OFFSET 1.561200 -12.956299 3.590200
								CHANNELS 3 Xrotation Yrotation Zrotation
								End Site
								{
									OFFSET 0.000000 13.534866 0.000000
								}
							}
						}
						JOINT HairC
						{
							OFFSET 9.713100 17.437393 -1.325900
							CHANNELS 3 Xrotation Yrotation Zrotation
							JOINT HairC1
							{
								OFFSET 3.290300 -11.051193 1.062200
								CHANNELS 3 Xrotation Yrotation Zrotation
								End Site
								{
									OFFSET 0.000000 11.579437 0.000000
								}
							}
						}
					}
				}
				JOINT LeftShoulder
				{
					OFFSET 5.101800 15.108002 -2.763700
					CHANNELS 3 Xrotation Yrotation Zrotation
					JOINT LeftArm
					{
						OFFSET 9.825497 2.506317 -1.597400
						CHANNELS 3 Xrotation Yrotation Zrotation
						JOINT LeftForeArm
						{
							OFFSET 21.966244 0.000000 0.000000
							CHANNELS 3 Xrotation Yrotation Zrotation
							JOINT LeftHand
							{
								OFFSET 33.879036 0.000000 0.000000
								CHANNELS 3 Xrotation Yrotation Zrotation
								JOINT LeftHandThumb1
								{
									OFFSET 6.715286 -2.359680 3.363841
									CHANNELS 3 Xrotation Yrotation Zrotation
									JOINT LeftHandThumb2
									{
										OFFSET 2.507072 -1.447464 1.447461
										CHANNELS 3 Xrotation Yrotation Zrotation
										JOINT LeftHandThumb3
										{
											OFFSET 2.898338 -1.673355 1.673357
											CHANNELS 3 Xrotation Yrotation Zrotation
											End Site
											{
												OFFSET -0.295959 3.727692 -0.131651
											}
										}
									}
								}
								JOINT LeftHandIndex1
								{
									OFFSET 14.190811 -0.254547 3.840278
									CHANNELS 3 Xrotation Yrotation Zrotation
									JOINT LeftHandIndex2
									{
										OFFSET 3.551727 0.000000 -0.000000
										CHANNELS 3 Xrotation Yrotation Zrotation
										JOINT LeftHandIndex3
										{
											OFFSET 2.894196 0.000000 0.000000
											CHANNELS 3 Xrotation Yrotation Zrotation
											End Site
											{
												OFFSET -1.000603 2.690872 0.366626
											}
										}
									}
								}
								JOINT LeftHandMiddle1
								{
									OFFSET 13.776489 0.000000 0.000000
									CHANNELS 3 Xrotation Yrotation Zrotation
									JOINT LeftHandMiddle2
									{
										OFFSET 3.438232 0.000000 0.000000
										CHANNELS 3 Xrotation Yrotation Zrotation
										JOINT LeftHandMiddle3
										{
											OFFSET 3.691551 0.000000 0.000000
											CHANNELS 3 Xrotation Yrotation Zrotation
											End Site
											{
												OFFSET -1.082298 3.499527 0.457670
											}
										}
									}
								}
								JOINT LeftHandRing1
								{
									OFFSET 13.966164 -0.268127 -3.067488
									CHANNELS 3 Xrotation Yrotation Zrotation
									JOINT LeftHandRing2
									{
										OFFSET 3.162567 0.000000 0.000000
										CHANNELS 3 Xrotation Yrotation Zrotation
										JOINT LeftHandRing3
										{
											OFFSET 3.324348 0.000000 0.000000
											CHANNELS 3 Xrotation Yrotation Zrotation
											End Site
											{
												OFFSET -0.861900 3.184998 0.405154
											}
										}
									}
								}
								JOINT LeftHandPinky1
								{
									OFFSET 13.131393 -0.168503 -5.746925
									CHANNELS 3 Xrotation Yrotation Zrotation
									JOINT LeftHandPinky2
									{
										OFFSET 2.849182 0.000000 0.000000
										CHANNELS 3 Xrotation Yrotation Zrotation
										JOINT LeftHandPinky3
										{
											OFFSET 2.805038 0.000000 0.000000
											CHANNELS 3 Xrotation Yrotation Zrotation
											End Site
											{
												OFFSET -0.882500 2.642609 0.325652
											}
										}
									}
								}
							}
							JOINT Left_Sleeve
							{
								OFFSET 6.592125 -0.646545 0.805568
								CHANNELS 3 Xrotation Yrotation Zrotation
								End Site
								{
									OFFSET -0.000179 20.275787 -0.000000
								}
							}
						}
					}
				}
				JOINT RightShoulder
				{
					OFFSET -5.731700 15.108002 -2.763700
					CHANNELS 3 Xrotation Yrotation Zrotation
					JOINT RightArm
					{
						OFFSET -9.825497 2.506317 -1.597400
						CHANNELS 3 Xrotation Yrotation Zrotation
						JOINT RightForeArm
						{
							OFFSET -21.966242 0.000000 0.000000
							CHANNELS 3 Xrotation Yrotation Zrotation
							JOINT RightHand
							{
								OFFSET -33.879032 0.000000 0.000000
								CHANNELS 3 Xrotation Yrotation Zrotation
								JOINT RightHandThumb1
								{
									OFFSET -6.715286 -2.359680 3.363841
									CHANNELS 3 Xrotation Yrotation Zrotation
									JOINT RightHandThumb2
									{
										OFFSET -2.507072 -1.447464 1.447461
										CHANNELS 3 Xrotation Yrotation Zrotation
										JOINT RightHandThumb3
										{
											OFFSET -2.898338 -1.673355 1.673357
											CHANNELS 3 Xrotation Yrotation Zrotation
											End Site
											{
												OFFSET 0.295959 3.727692 -0.131651
											}
										}
									}
								}
								JOINT RightHandIndex1
								{
									OFFSET -14.190811 -0.254547 3.840278
									CHANNELS 3 Xrotation Yrotation Zrotation
									JOINT RightHandIndex2
									{
										OFFSET -3.551727 0.000000 -0.000000
										CHANNELS 3 Xrotation Yrotation Zrotation
										JOINT RightHandIndex3
										{
											OFFSET -2.894196 0.000000 0.000000
											CHANNELS 3 Xrotation Yrotation Zrotation
											End Site
											{
												OFFSET 1.000603 2.690872 0.366626
											}
										}
									}
								}
								JOINT RightHandMiddle1
								{
									OFFSET -13.776489 0.000000 0.000000
									CHANNELS 3 Xrotation Yrotation Zrotation
									JOINT RightHandMiddle2
									{
										OFFSET -3.438232 0.000000 0.000000
										CHANNELS 3 Xrotation Yrotation Zrotation
										JOINT RightHandMiddle3
										{
											OFFSET -3.691551 0.000000 0.000000
											CHANNELS 3 Xrotation Yrotation Zrotation
											End Site
											{
												OFFSET 1.082298 3.499527 0.457670
											}
										}
									}
								}
								JOINT RightHandRing1
								{
									OFFSET -13.966164 -0.268127 -3.067488
									CHANNELS 3 Xrotation Yrotation Zrotation
									JOINT RightHandRing2
									{
										OFFSET -3.162567 0.000000 0.000000
										CHANNELS 3 Xrotation Yrotation Zrotation
										JOINT RightHandRing3
										{
											OFFSET -3.324348 0.000000 0.000000
											CHANNELS 3 Xrotation Yrotation Zrotation
											End Site
											{
												OFFSET 0.861900 3.184998 0.405154
											}
										}
									}
								}
								JOINT RightHandPinky1
								{
									OFFSET -13.131393 -0.168503 -5.746925
									CHANNELS 3 Xrotation Yrotation Zrotation
									JOINT RightHandPinky2
									{
										OFFSET -2.849182 0.000000 0.000000
										CHANNELS 3 Xrotation Yrotation Zrotation
										JOINT RightHandPinky3
										{
											OFFSET -2.805038 0.000000 0.000000
											CHANNELS 3 Xrotation Yrotation Zrotation
											End Site
											{
												OFFSET 0.882500 2.642609 0.325652
											}
										}
									}
								}
							}
							JOINT Right_Sleeve
							{
								OFFSET -6.592125 -0.646545 0.805568
								CHANNELS 3 Xrotation Yrotation Zrotation
								End Site
								{
									OFFSET 0.000179 20.275787 -0.000000
								}
							}
						}
					}
				}
				JOINT Bind_Right_JacketString
				{
					OFFSET -3.534800 11.969597 7.200700
					CHANNELS 3 Xrotation Yrotation Zrotation
					JOINT Bind_Right_JacketString1
					{
						OFFSET -0.319900 -6.102600 2.794100
						CHANNELS 3 Xrotation Yrotation Zrotation
						End Site
						{
							OFFSET 0.000000 6.719452 0.000000
						}
					}
				}
				JOINT Bind_Left_JacketString
				{
					OFFSET 2.904800 11.969597 7.200700
					CHANNELS 3 Xrotation Yrotation Zrotation
					JOINT Bind_Left_JacketString1
					{
						OFFSET 0.364800 -5.904503 3.186800
						CHANNELS 3 Xrotation Yrotation Zrotation
						End Site
						{
							OFFSET 0.000000 6.719513 0.000000
						}
					}
				}
				JOINT HairE
				{
					OFFSET 5.915200 17.612701 -11.592200
					CHANNELS 3 Xrotation Yrotation Zrotation
					JOINT HairE1
					{
						OFFSET 0.289200 -7.171898 -1.284500
						CHANNELS 3 Xrotation Yrotation Zrotation
						End Site
						{
							OFFSET 0.000000 7.291756 0.000000
						}
					}
				}
				JOINT HairF
				{
					OFFSET -0.864800 17.612701 -11.592200
					CHANNELS 3 Xrotation Yrotation Zrotation
					JOINT HairF1
					{
						OFFSET 0.000000 -14.087097 -2.127501
						CHANNELS 3 Xrotation Yrotation Zrotation
						End Site
						{
							OFFSET 0.000000 14.246841 0.000000
						}
					}
				}
				JOINT HairG
				{
					OFFSET -8.087700 17.612701 -11.592200
					CHANNELS 3 Xrotation Yrotation Zrotation
					JOINT HairG1
					{
						OFFSET -0.293600 -6.081398 -0.910100
						CHANNELS 3 Xrotation Yrotation Zrotation
						End Site
						{
							OFFSET 0.000000 6.156120 0.000000
						}
					}
				}
			}
		}
	}
	JOINT Pouch
	{
		OFFSET 0.000000 4.394501 10.847300
		CHANNELS 3 Xrotation Yrotation Zrotation
		End Site
		{
			OFFSET 0.000000 21.880577 0.000000
		}
	}
	JOINT Bag
	{
		OFFSET -13.229000 4.813004 -0.593300
		CHANNELS 3 Xrotation Yrotation Zrotation
		End Site
		{
			OFFSET 0.000000 21.880577 0.000000
		}
	}
	JOINT OccupyGuyFacialAnim_Joint
	{
		OFFSET 1.000000 -70.206398 -1.655000
		CHANNELS 3 Xrotation Yrotation Zrotation
		End Site
		{
			OFFSET 0.000000 21.880577 0.000000
		}
	}
}
MOTION
Frames: 5
Frame Time: 0.033333
0.013340 64.567345 0.099789 9.540974 -61.607746 10.158364 -0.000000 0.000000 0.000000 -34.030021 13.174131 22.630278 36.645153 -7.061429 1.214782 -8.817791 -1.953541 -15.288981 0.000000 -0.000003 0.000000 -0.000000 0.000000 0.000003 -29.116734 -21.189349 -31.055173 35.640060 3.720360 -4.158991 -13.966018 0.510989 21.623530 -0.000000 -0.000000 0.000000 -0.000001 -0.000000 0.000000 15.063690 -0.338017 -4.297657 5.872399 0.563939 -2.798215 5.868718 0.648188 -2.860165 -3.632880 1.437145 3.747498 -20.005962 54.836778 2.407375 0.000000 -0.000000 0.000000 0.000000 -0.000000 0.000000 0.000000 -0.000000 0.000000 0.000000 -0.000000 -0.000000 0.000000 0.000000 -0.000000 0.000000 -0.000000 -0.000000 0.000000 0.000000 -0.000000 0.000000 -0.000000 0.000000 0.000000 -0.000000 0.000000 1.828105 -3.192689 -12.271568 -39.387413 26.350501 -34.911105 0.429353 -46.808482 0.416169 -10.315055 -0.130716 0.363023 40.109955 -15.297119 -0.360509 5.639826 28.097913 11.338840 -0.000001 0.000002 0.000003 6.882261 2.840086 -61.140397 8.247989 7.640048 -89.897878 0.000000 -0.000000 -0.000002 -2.345505 4.688878 -62.655204 8.754163 9.897072 -87.051307 0.000003 -0.000003 0.000002 -9.042453 10.045635 -60.766171 8.524081 9.508837 -66.893042 -0.000001 0.000000 0.000001 -17.946906 14.755013 -51.485853 8.868450 8.667047 -84.811989 -0.000003 0.000001 -0.000002 0.000001 0.000000 0.000002 0.632612 7.257342 8.700395 7.936011 -9.680160 53.429892 -22.867439 36.194702 17.955459 -27.369917 10.432889 -17.813553 -2.346188 -6.100551 10.731439 2.364066 -23.806319 -8.771057 0.000000 0.000000 0.000001 -0.054756 0.532101 0.738736 0.019777 -0.087306 5.078499 -0.000000 -0.000001 0.000002 0.348254 -5.918520 2.583828 1.432603 -4.204237 24.052091 0.000002 -0.000002 -0.000003 1.205825 -11.756058 4.154781 1.794839 -3.771870 26.865410 -0.000001 -0.000001 -0.000000 2.126208 -19.166870 11.319978 3.354770 -2.122232 18.828552 0.000001 -0.000000 0.000004 -0.000001 -0.000001 -0.000002 -0.000000 0.000002 -0.000000 -0.000001 0.000002 0.000001 -0.000000 0.000002 -0.000000 -0.000000 0.000002 -0.000000 -0.000000 0.000002 -0.000000 -0.000001 0.000002 0.000001 -0.000000 0.000002 -0.000000 -0.000000 0.000002 -0.000000 -0.000000 0.000002 -0.000000 -0.000001 0.000002 0.000001 -0.000000 0.000000 0.000000 -0.000000 0.000000 0.000000 -0.000000 0.000000 0.000000 
-1.338944 64.055534 0.628590 -16.567479 -62.065949 -1.781740 0.000001 -0.000000 0.000001 -16.307107 20.670441 12.315357 34.532736 -8.524643 1.464063 -9.677306 -3.041394 -15.086809 -0.000000 -0.000000 0.000000 -0.000002 0.000002 0.000001 -24.590336 -17.068769 -46.355712 43.837244 6.915687 -4.498795 -19.471425 1.033001 22.243660 0.000000 0.000000 0.000000 -0.000001 -0.000002 0.000001 14.659920 -0.340416 -3.590410 6.322179 0.395331 -2.403351 6.317045 0.519353 -2.457309 20.287293 -10.272590 5.285762 7.467367 48.170777 -9.269645 0.000002 -0.000003 0.000000 0.000002 -0.000003 0.000000 0.000002 -0.000003 0.000002 0.000002 -0.000003 0.000001 -0.000002 0.000001 -0.000001 0.000002 -0.000003 0.000001 -0.000002 0.000001 -0.000001 0.000002 -0.000003 0.000000 0.000002 -0.000003 0.000000 2.783961 4.434617 -11.924672 -18.657852 21.103872 -46.893224 -12.950120 -54.097998 -15.916168 -8.478643 7.204821 -19.847164 40.109955 -15.297115 -0.360510 5.639823 28.097913 11.338840 0.000001 0.000000 -0.000005 6.882259 2.840088 -61.140397 8.247990 7.640047 -89.897878 0.000004 0.000000 -0.000000 -2.345506 4.688884 -62.655204 8.754155 9.897078 -87.051314 0.000001 0.000002 -0.000001 -9.042455 10.045639 -60.766171 8.524089 9.508835 -66.893042 0.000004 -0.000001 -0.000001 -17.946906 14.755017 -51.485853 8.868450 8.667046 -84.811982 -0.000002 0.000001 0.000003 0.000003 -0.000001 -0.000001 0.407857 10.596373 9.586386 13.699723 -5.440411 45.041863 -37.171768 36.423824 25.105578 -19.646168 6.500368 -15.778995 -2.345938 -6.100938 10.731323 2.352894 -23.770339 -8.763496 0.000000 -0.000001 0.000001 2.113506 -1.615956 17.124000 0.034718 -0.089970 43.983713 -0.000000 -0.000001 0.000000 2.377262 -6.409671 19.145766 1.911095 -4.011823 51.328182 0.000000 -0.000003 0.000004 3.614761 -10.708201 18.568960 2.275134 -3.503021 44.346198 0.000001 0.000001 -0.000001 2.834072 -18.141782 21.877921 3.266415 -2.248987 36.715217 -0.000002 -0.000000 -0.000003 0.000001 -0.000003 0.000001 -0.000000 -0.000001 -0.000001 -0.000000 -0.000002 0.000000 -0.000000 -0.000001 -0.000001 -0.000000 -0.000001 -0.000001 -0.000000 -0.000001 -0.000001 -0.000000 -0.000002 -0.000000 -0.000000 -0.000001 -0.000001 -0.000000 -0.000001 -0.000001 -0.000000 -0.000001 -0.000001 -0.000000 -0.000002 -0.000000 0.000001 -0.000000 0.000001 0.000001 -0.000000 0.000001 0.000001 -0.000000 0.000001 
-1.679197 63.322662 0.957569 -28.045259 -66.514308 -9.481395 -0.000000 0.000000 -0.000001 -10.542821 21.725585 9.538492 37.299253 -6.913255 1.398641 -12.425471 -0.267498 -15.909891 0.000000 -0.000000 -0.000000 -0.000001 -0.000003 -0.000002 -25.943398 -12.915705 -51.186670 48.207533 10.092070 -4.582413 -21.121074 3.913242 21.435592 -0.000000 -0.000000 0.000000 0.000002 0.000001 -0.000000 13.635341 0.838555 -1.691978 4.997521 1.592463 0.001318 5.010821 1.718528 -0.065664 20.209505 -14.708121 18.566314 11.691016 46.438343 -12.025475 0.000001 -0.000001 0.000001 0.000001 -0.000001 0.000001 0.000001 -0.000001 0.000002 0.000001 -0.000001 0.000001 -0.000001 0.000003 0.000001 0.000001 -0.000001 0.000001 -0.000001 0.000003 0.000001 0.000001 -0.000001 0.000001 0.000001 -0.000001 0.000001 2.453468 6.009797 -10.719739 -8.425286 26.586605 -53.567517 -19.243392 -61.262453 -22.421969 -7.636649 10.074396 -24.613888 40.109951 -15.297119 -0.360504 5.639827 28.097918 11.338840 0.000001 -0.000000 -0.000001 6.882260 2.840086 -61.140391 8.247988 7.640043 -89.897878 -0.000002 0.000000 -0.000002 -2.345511 4.688879 -62.655204 8.754160 9.897075 -87.051314 -0.000001 -0.000001 -0.000003 -9.042457 10.045628 -60.766171 8.524088 9.508834 -66.893035 -0.000001 -0.000001 -0.000001 -17.946906 14.755010 -51.485853 8.868453 8.667048 -84.811989 -0.000004 -0.000000 0.000005 0.000003 0.000000 -0.000000 0.446403 6.213539 8.862372 14.852864 2.884959 25.941682 -47.419165 42.607475 33.186168 -15.215758 9.208153 -11.566581 -2.348732 -6.092564 10.733531 2.355175 -23.777589 -8.765027 -0.000000 0.000000 0.000000 1.550902 -0.901303 15.072095 0.025596 -0.096306 41.940794 0.000002 0.000003 -0.000001 2.317936 -5.202462 17.488421 1.566043 -4.188239 48.322636 -0.000005 0.000000 -0.000001 3.141659 -10.266034 17.797658 2.118199 -3.585235 39.831276 0.000000 0.000000 0.000001 3.365335 -17.285744 20.823136 3.099195 -2.512726 34.156687 -0.000000 0.000003 0.000004 -0.000001 -0.000002 -0.000001 -0.000000 -0.000003 0.000000 -0.000001 -0.000001 -0.000001 -0.000000 -0.000003 0.000001 -0.000000 -0.000003 0.000001 -0.000000 -0.000003 0.000000 -0.000001 -0.000001 -0.000000 -0.000000 -0.000003 0.000001 -0.000000 -0.000003 0.000001 -0.000000 -0.000003 0.000000 -0.000001 -0.000001 -0.000000 -0.000000 0.000000 -0.000001 -0.000000 0.000000 -0.000001 -0.000000 0.000000 -0.000001 
-1.904017 62.721237 0.703127 -30.242524 -70.260947 -12.205204 -0.000000 0.000001 0.000001 -11.237743 21.442850 10.452857 39.843912 -3.984249 1.521354 -14.224705 0.659418 -17.557119 -0.000000 0.000000 -0.000000 -0.000000 -0.000003 -0.000000 -29.205971 -10.386734 -50.617197 51.469017 11.710050 -4.837527 -22.079555 5.708110 20.246969 -0.000000 0.000000 0.000000 0.000001 0.000001 -0.000002 13.430881 1.506956 -0.468043 4.224590 2.086223 1.993069 4.239043 2.253189 1.913647 8.915624 -15.526367 33.202666 5.457856 49.163763 -10.621682 0.000003 0.000000 0.000001 0.000003 0.000000 0.000001 0.000003 0.000000 0.000002 0.000003 0.000000 -0.000000 0.000003 0.000000 -0.000000 0.000003 0.000000 -0.000000 0.000003 0.000000 -0.000000 0.000003 0.000000 0.000001 0.000003 0.000000 0.000001 2.128410 5.463971 -9.399162 -2.168508 34.648115 -58.446899 -23.500517 -66.299390 -26.438819 -7.606414 9.225837 -24.318390 40.109951 -15.297120 -0.360503 5.639824 28.097909 11.338839 0.000000 0.000001 -0.000001 6.882262 2.840089 -61.140391 8.247989 7.640046 -89.897878 -0.000005 -0.000001 -0.000000 -2.345506 4.688878 -62.655197 8.754160 9.897079 -87.051314 0.000002 -0.000000 0.000001 -9.042452 10.045640 -60.766164 8.524089 9.508831 -66.893035 0.000000 0.000004 -0.000002 -17.946908 14.755013 -51.485853 8.868453 8.667048 -84.811982 -0.000001 0.000001 -0.000001 0.000003 -0.000001 -0.000000 1.310376 5.667003 6.329281 0.855221 5.242965 14.565095 -43.546240 50.706515 34.928474 -12.956991 9.848524 -7.115021 -2.356305 -6.069685 10.739342 2.360902 -23.796181 -8.768893 -0.000000 0.000005 -0.000001 0.516644 0.730615 10.307409 0.006365 -0.105285 36.188610 0.000002 -0.000000 -0.000002 2.369754 -2.799026 13.449493 0.812205 -4.455074 41.145831 -0.000000 -0.000003 0.000002 2.153565 -9.395235 15.659740 1.785002 -3.754983 30.070065 -0.000001 -0.000003 0.000001 4.521954 -15.726774 18.229056 2.709939 -2.993826 28.277058 -0.000000 0.000004 -0.000004 0.000001 -0.000001 0.000000 -0.000000 0.000003 -0.000001 -0.000000 0.000003 0.000002 -0.000000 0.000003 0.000001 -0.000000 0.000003 0.000001 -0.000000 0.000003 -0.000001 -0.000000 0.000003 0.000002 -0.000000 0.000003 0.000001 -0.000000 0.000003 0.000001 -0.000000 0.000003 -0.000001 -0.000000 0.000003 0.000002 -0.000000 0.000001 0.000001 -0.000000 0.000001 0.000001 -0.000000 0.000001 0.000001 
-2.097615 62.328163 -0.098457 -25.482010 -71.136393 -9.527855 -0.000001 0.000001 0.000001 -14.653529 20.214083 13.368374 41.261436 -3.295651 1.546195 -14.521522 0.798159 -18.722927 0.000000 -0.000003 -0.000000 0.000002 0.000002 -0.000001 -31.416770 -10.304285 -47.864579 53.944182 11.384511 -5.134136 -23.300132 5.640791 19.297760 0.000000 0.000000 -0.000000 0.000007 -0.000001 0.000002 13.787029 1.453016 0.319322 4.171195 1.543753 3.722057 4.157410 1.749513 3.644785 -3.620759 -16.858956 46.231768 -5.953956 52.120702 -6.061131 -0.000000 -0.000002 -0.000001 -0.000000 -0.000002 -0.000001 -0.000000 -0.000002 -0.000001 -0.000000 -0.000002 -0.000000 -0.000000 0.000002 -0.000002 -0.000000 -0.000002 -0.000000 -0.000000 0.000002 -0.000002 -0.000000 -0.000002 -0.000001 -0.000000 -0.000002 -0.000001 1.996230 3.247346 -7.759938 1.061550 41.855980 -61.237120 -26.692185 -64.979380 -29.037299 -7.957304 5.940835 -19.145090 40.109948 -15.297124 -0.360503 5.639826 28.097916 11.338843 -0.000000 0.000001 0.000001 6.882259 2.840085 -61.140397 8.247990 7.640044 -89.897878 -0.000000 0.000000 0.000002 -2.345508 4.688879 -62.655204 8.754160 9.897077 -87.051314 0.000002 0.000001 -0.000001 -9.042454 10.045635 -60.766171 8.524087 9.508835 -66.893042 -0.000002 0.000000 -0.000001 -17.946904 14.755013 -51.485850 8.868452 8.667050 -84.811982 0.000000 -0.000001 0.000003 -0.000002 0.000001 -0.000001 3.185234 7.666746 3.569276 -22.548831 2.719782 11.696446 -40.575903 58.838856 36.489787 -9.857536 13.351822 -8.561778 -2.363710 -6.047428 10.745061 2.367141 -23.816135 -8.773106 -0.000002 -0.000001 0.000000 -0.261966 2.605241 5.357963 -0.016629 -0.111643 30.154558 -0.000000 -0.000002 -0.000004 2.795171 -0.328595 9.169156 -0.019987 -4.601820 33.612611 0.000001 -0.000001 0.000001 1.192547 -8.422218 13.444719 1.429774 -3.926858 19.832429 0.000001 -0.000001 -0.000004 5.899305 -14.261226 15.455533 2.232009 -3.439019 22.104970 -0.000001 -0.000000 0.000001 0.000000 -0.000001 0.000000 0.000001 0.000001 -0.000001 0.000002 0.000001 -0.000001 0.000001 0.000001 0.000002 0.000001 0.000001 0.000002 0.000001 0.000001 -0.000001 0.000002 0.000001 -0.000001 0.000001 0.000001 0.000002 0.000001 0.000001 0.000002 0.000001 0.000001 -0.000001 0.000002 0.000001 -0.000001 -0.000001 0.000001 0.000001 -0.000001 0.000001 0.000001 -0.000001 0.000001 0.000001 
